<?xml version="1.0" ?><!DOCTYPE svg  PUBLIC '-//W3C//DTD SVG 1.1//EN'  'http://www.w3.org/Graphics/SVG/1.1/DTD/svg11.dtd'><svg enable-background="new 0 -0.266 32 32" height="32px" overflow="visible" version="1.1" viewBox="0 -0.266 32 32" width="32px" xml:space="preserve" xmlns="http://www.w3.org/2000/svg" xmlns:xlink="http://www.w3.org/1999/xlink"><defs/><path clip-rule="evenodd" d="M28.923,0H3.077C1.378,0,0,1.377,0,3.076v25.848  C0,30.623,1.378,32,3.077,32h25.846c1.7,0,3.077-1.377,3.077-3.076V3.076C32,1.377,30.623,0,28.923,0z M16,9.846  c3.398,0,6.154,2.756,6.154,6.154S19.398,22.154,16,22.154S9.846,19.398,9.846,16S12.602,9.846,16,9.846z M28.308,27.076  c0,0.68-0.551,1.232-1.23,1.232H4.923c-0.68,0-1.23-0.553-1.23-1.232V13.539h2.784C6.273,14.326,6.154,15.148,6.154,16  c0,5.438,4.408,9.846,9.846,9.846c5.438,0,9.846-4.408,9.846-9.846c0-0.852-0.119-1.674-0.322-2.461h2.784V27.076z M28.308,8.615  c0,0.68-0.551,1.23-1.23,1.23h-3.692c-0.68,0-1.23-0.551-1.23-1.23V4.924c0-0.68,0.551-1.232,1.23-1.232h3.692  c0.68,0,1.23,0.553,1.23,1.232V8.615z" fill-rule="evenodd" id="instagram_1_"/></svg>