<svg xmlns="http://www.w3.org/2000/svg" viewBox="0 0 721.88 174.93"><defs><style>.a{font-size:95.04px;font-family:NeoSansStd-Light, Neo Sans Std;}.b{letter-spacing:-0.03em;}.c{fill:none;stroke:#000;stroke-miterlimit:10;stroke-width:3.75px;}.c:hover{ stroke:#505cfe}.cur:hover{fill:#505cfe}</style></defs><title>logo-v3</title><text class="a" transform="translate(162.83 100.53)">Ma<tspan class="b" x="115.76" y="0">r</tspan><tspan x="141.81" y="0">celo Sousa</tspan></text><rect class="c" x="1.88" y="1.88" width="140" height="132.91" rx="7" ry="7"/><path class="cur" d="M169.78,479.58c.34.64.59,1.15.87,1.64q6.68,11.86,13.36,23.73c2,3.58,1.35,6.05-2.19,8q-15.76,8.85-31.55,17.67c-3.21,1.79-5.94,1-7.76-2.22l-13.29-23.6-1.12-2c-.47.47-.87.84-1.24,1.24q-11,11.66-21.9,23.34c-1.59,1.7-3.44,2.46-5.7,1.66s-3.2-2.55-3.36-4.88q-2-29.7-4.14-59.39-2-28.26-4-56.51c-.45-6.38-.89-12.75-1.36-19.13a5,5,0,0,1,2.47-5.13,5,5,0,0,1,5.8.46q21.86,15.66,43.74,31.28,33.19,23.73,66.39,47.45a5.05,5.05,0,0,1,2.38,5.44c-.48,2.34-2.07,3.53-4.38,4q-15.4,3.14-30.78,6.34C171.34,479.19,170.65,479.38,169.78,479.58Zm-74.69-22.9q.4,5.68.81,11.36,1.55,22.29,3.1,44.58c.26,3.79.51,7.58.84,11.36a1.79,1.79,0,0,0,.77,1.34c.36.14,1-.28,1.44-.55a4.38,4.38,0,0,0,.8-.83l23.59-25.12c1.76-1.88,3-1.73,4.23.52l15.19,27c.86,1.53,1.17,1.64,2.58.85q15.78-8.83,31.56-17.66c1.21-.67,1.38-1.34.7-2.53-2.78-4.83-5.49-9.7-8.22-14.55q-3.57-6.34-7.13-12.69c-1.13-2-.6-3.18,1.61-3.63l2.25-.49c10.73-2.21,21.46-4.41,32.18-6.67a7.54,7.54,0,0,0,2-1.12,8.89,8.89,0,0,0-1.45-1.77q-11.52-8.3-23.1-16.53-43-30.77-86.1-61.53c-.48-.35-1.33-.7-1.73-.49s-.62,1.12-.58,1.7Q92.71,423,95.09,456.68Z" transform="translate(-75.13 -356.67)"/></svg>